<mxfile host="app.diagrams.net" modified="2022-03-02T11:02:22.140Z" agent="5.0 (Windows NT 10.0; Win64; x64) AppleWebKit/537.36 (KHTML, like Gecko) Chrome/98.0.4758.105 Safari/537.36" etag="51ArA12CT4Zm58QNlmO3" version="16.6.4" type="github">
  <diagram id="RisVgCtK_zkFDmNn1Mx_" name="Page-1">
    <mxGraphModel dx="1243" dy="671" grid="1" gridSize="10" guides="1" tooltips="1" connect="1" arrows="1" fold="1" page="1" pageScale="1" pageWidth="827" pageHeight="1169" math="0" shadow="0">
      <root>
        <mxCell id="0" />
        <mxCell id="1" parent="0" />
        <mxCell id="X45u9NISU1dE15UL4ozq-7" style="edgeStyle=orthogonalEdgeStyle;rounded=0;orthogonalLoop=1;jettySize=auto;html=1;entryX=0.5;entryY=0;entryDx=0;entryDy=0;" edge="1" parent="1" source="X45u9NISU1dE15UL4ozq-1" target="X45u9NISU1dE15UL4ozq-2">
          <mxGeometry relative="1" as="geometry" />
        </mxCell>
        <mxCell id="X45u9NISU1dE15UL4ozq-1" value="Начало" style="rounded=1;whiteSpace=wrap;html=1;" vertex="1" parent="1">
          <mxGeometry x="354" y="50" width="120" height="60" as="geometry" />
        </mxCell>
        <mxCell id="X45u9NISU1dE15UL4ozq-6" style="edgeStyle=orthogonalEdgeStyle;rounded=0;orthogonalLoop=1;jettySize=auto;html=1;" edge="1" parent="1" source="X45u9NISU1dE15UL4ozq-2" target="X45u9NISU1dE15UL4ozq-5">
          <mxGeometry relative="1" as="geometry" />
        </mxCell>
        <mxCell id="X45u9NISU1dE15UL4ozq-2" value="Ввод int(a,b)" style="shape=parallelogram;perimeter=parallelogramPerimeter;whiteSpace=wrap;html=1;fixedSize=1;" vertex="1" parent="1">
          <mxGeometry x="354" y="130" width="120" height="60" as="geometry" />
        </mxCell>
        <mxCell id="X45u9NISU1dE15UL4ozq-10" style="edgeStyle=orthogonalEdgeStyle;rounded=0;orthogonalLoop=1;jettySize=auto;html=1;entryX=0.5;entryY=0;entryDx=0;entryDy=0;" edge="1" parent="1" source="X45u9NISU1dE15UL4ozq-3" target="X45u9NISU1dE15UL4ozq-9">
          <mxGeometry relative="1" as="geometry">
            <Array as="points">
              <mxPoint x="554" y="320" />
            </Array>
          </mxGeometry>
        </mxCell>
        <mxCell id="X45u9NISU1dE15UL4ozq-23" style="edgeStyle=orthogonalEdgeStyle;rounded=0;orthogonalLoop=1;jettySize=auto;html=1;entryX=0.5;entryY=0;entryDx=0;entryDy=0;" edge="1" parent="1" source="X45u9NISU1dE15UL4ozq-3" target="X45u9NISU1dE15UL4ozq-22">
          <mxGeometry relative="1" as="geometry">
            <Array as="points">
              <mxPoint x="330" y="320" />
              <mxPoint x="330" y="530" />
              <mxPoint x="414" y="530" />
            </Array>
          </mxGeometry>
        </mxCell>
        <mxCell id="X45u9NISU1dE15UL4ozq-3" value="a&amp;lt;=b" style="rhombus;whiteSpace=wrap;html=1;" vertex="1" parent="1">
          <mxGeometry x="374" y="290" width="80" height="60" as="geometry" />
        </mxCell>
        <mxCell id="X45u9NISU1dE15UL4ozq-8" style="edgeStyle=orthogonalEdgeStyle;rounded=0;orthogonalLoop=1;jettySize=auto;html=1;entryX=0.5;entryY=0;entryDx=0;entryDy=0;" edge="1" parent="1" source="X45u9NISU1dE15UL4ozq-5" target="X45u9NISU1dE15UL4ozq-3">
          <mxGeometry relative="1" as="geometry" />
        </mxCell>
        <mxCell id="X45u9NISU1dE15UL4ozq-5" value="int Sum = 0" style="rounded=0;whiteSpace=wrap;html=1;" vertex="1" parent="1">
          <mxGeometry x="354" y="210" width="120" height="60" as="geometry" />
        </mxCell>
        <mxCell id="X45u9NISU1dE15UL4ozq-16" style="edgeStyle=orthogonalEdgeStyle;rounded=0;orthogonalLoop=1;jettySize=auto;html=1;entryX=0.5;entryY=0;entryDx=0;entryDy=0;" edge="1" parent="1" source="X45u9NISU1dE15UL4ozq-9" target="X45u9NISU1dE15UL4ozq-11">
          <mxGeometry relative="1" as="geometry">
            <Array as="points">
              <mxPoint x="490" y="390" />
            </Array>
          </mxGeometry>
        </mxCell>
        <mxCell id="X45u9NISU1dE15UL4ozq-18" style="edgeStyle=orthogonalEdgeStyle;rounded=0;orthogonalLoop=1;jettySize=auto;html=1;entryX=0.5;entryY=0;entryDx=0;entryDy=0;" edge="1" parent="1" source="X45u9NISU1dE15UL4ozq-9" target="X45u9NISU1dE15UL4ozq-17">
          <mxGeometry relative="1" as="geometry">
            <Array as="points">
              <mxPoint x="630" y="390" />
            </Array>
          </mxGeometry>
        </mxCell>
        <mxCell id="X45u9NISU1dE15UL4ozq-9" value="a%4==0" style="rhombus;whiteSpace=wrap;html=1;" vertex="1" parent="1">
          <mxGeometry x="514" y="360" width="80" height="60" as="geometry" />
        </mxCell>
        <mxCell id="X45u9NISU1dE15UL4ozq-15" style="edgeStyle=orthogonalEdgeStyle;rounded=0;orthogonalLoop=1;jettySize=auto;html=1;entryX=0.5;entryY=1;entryDx=0;entryDy=0;" edge="1" parent="1" source="X45u9NISU1dE15UL4ozq-11" target="X45u9NISU1dE15UL4ozq-3">
          <mxGeometry relative="1" as="geometry">
            <Array as="points">
              <mxPoint x="414" y="440" />
            </Array>
          </mxGeometry>
        </mxCell>
        <mxCell id="X45u9NISU1dE15UL4ozq-11" value="a++" style="rounded=0;whiteSpace=wrap;html=1;" vertex="1" parent="1">
          <mxGeometry x="460" y="420" width="60" height="40" as="geometry" />
        </mxCell>
        <mxCell id="X45u9NISU1dE15UL4ozq-20" style="edgeStyle=orthogonalEdgeStyle;rounded=0;orthogonalLoop=1;jettySize=auto;html=1;entryX=0.5;entryY=0;entryDx=0;entryDy=0;" edge="1" parent="1" source="X45u9NISU1dE15UL4ozq-17" target="X45u9NISU1dE15UL4ozq-19">
          <mxGeometry relative="1" as="geometry" />
        </mxCell>
        <mxCell id="X45u9NISU1dE15UL4ozq-17" value="Sum = Sum + a" style="rounded=0;whiteSpace=wrap;html=1;" vertex="1" parent="1">
          <mxGeometry x="570" y="420" width="120" height="40" as="geometry" />
        </mxCell>
        <mxCell id="X45u9NISU1dE15UL4ozq-21" style="edgeStyle=orthogonalEdgeStyle;rounded=0;orthogonalLoop=1;jettySize=auto;html=1;" edge="1" parent="1" source="X45u9NISU1dE15UL4ozq-19">
          <mxGeometry relative="1" as="geometry">
            <mxPoint x="420" y="440" as="targetPoint" />
          </mxGeometry>
        </mxCell>
        <mxCell id="X45u9NISU1dE15UL4ozq-19" value="a=a+4" style="rounded=0;whiteSpace=wrap;html=1;" vertex="1" parent="1">
          <mxGeometry x="600" y="480" width="60" height="40" as="geometry" />
        </mxCell>
        <mxCell id="X45u9NISU1dE15UL4ozq-29" style="edgeStyle=orthogonalEdgeStyle;rounded=0;orthogonalLoop=1;jettySize=auto;html=1;fontSize=16;" edge="1" parent="1" source="X45u9NISU1dE15UL4ozq-22" target="X45u9NISU1dE15UL4ozq-28">
          <mxGeometry relative="1" as="geometry" />
        </mxCell>
        <mxCell id="X45u9NISU1dE15UL4ozq-22" value="Вывод Sum" style="shape=parallelogram;perimeter=parallelogramPerimeter;whiteSpace=wrap;html=1;fixedSize=1;" vertex="1" parent="1">
          <mxGeometry x="354" y="550" width="120" height="60" as="geometry" />
        </mxCell>
        <mxCell id="X45u9NISU1dE15UL4ozq-24" value="&lt;font style=&quot;font-size: 16px&quot;&gt;True&lt;/font&gt;" style="text;strokeColor=none;fillColor=none;html=1;fontSize=24;fontStyle=1;verticalAlign=middle;align=center;" vertex="1" parent="1">
          <mxGeometry x="440" y="280" width="100" height="40" as="geometry" />
        </mxCell>
        <mxCell id="X45u9NISU1dE15UL4ozq-25" value="&lt;font style=&quot;font-size: 16px&quot;&gt;True&lt;/font&gt;" style="text;strokeColor=none;fillColor=none;html=1;fontSize=24;fontStyle=1;verticalAlign=middle;align=center;" vertex="1" parent="1">
          <mxGeometry x="560" y="350" width="100" height="40" as="geometry" />
        </mxCell>
        <mxCell id="X45u9NISU1dE15UL4ozq-26" value="&lt;font style=&quot;font-size: 16px&quot;&gt;False&lt;/font&gt;" style="text;strokeColor=none;fillColor=none;html=1;fontSize=24;fontStyle=1;verticalAlign=middle;align=center;" vertex="1" parent="1">
          <mxGeometry x="454" y="350" width="100" height="40" as="geometry" />
        </mxCell>
        <mxCell id="X45u9NISU1dE15UL4ozq-27" value="&lt;font style=&quot;font-size: 16px&quot;&gt;False&lt;/font&gt;" style="text;strokeColor=none;fillColor=none;html=1;fontSize=24;fontStyle=1;verticalAlign=middle;align=center;" vertex="1" parent="1">
          <mxGeometry x="300" y="280" width="100" height="40" as="geometry" />
        </mxCell>
        <mxCell id="X45u9NISU1dE15UL4ozq-28" value="Конец" style="rounded=1;whiteSpace=wrap;html=1;fontSize=16;" vertex="1" parent="1">
          <mxGeometry x="354" y="620" width="120" height="60" as="geometry" />
        </mxCell>
      </root>
    </mxGraphModel>
  </diagram>
</mxfile>
